<svg xmlns="http://www.w3.org/2000/svg" id="a" viewBox="0 0 400 400"><defs><style>.c{fill:#304c6c}</style></defs><path d="M0 0h400v400H0z" class="c"/><path d="M358 24a250 250 0 0 0-154 73l-16 18H84l-6 4-14 14-16 16c-5 6-12 11-17 18l-5 8 1 2c5 3 13 5 19 7l52 14 30 8c-3 6-9 14-7 22 2 7 10 12 15 18-12-4-25-4-37 2-21 11-30 37-37 58l-10 33-5 20c28-12 69-20 92-40 6-6 11-13 15-21 4-10 5-21 3-32 5 6 14 18 22 18 6 0 12-5 16-8l7 25 14 42 5 16 3 10 3 6c2 2 4 2 5 2l4-2 12-12 18-19 10-11 10-12c2-2 3-4 3-8 1-13-2-28-3-41-2-19-2-40-5-59a258 258 0 0 0 92-181l1-8v-1l-16 1ZM149 272l-10 13-2 1c-2-2-1-9-1-12-7 5-13 8-21 11 2-8 7-15 11-22h-11l-2-1 2-3 5-3c5-3 12-6 16-10 3 1 17 15 18 18l-5 8Z" style="fill:#f93"/><path d="m273 98-1-5-3-13-2-6 1-4h1l2-1 8 4 15 8 14-8 7-4h4a3 3 0 0 1 1 1v2l-1 10-2 15 1 1 11 9 8 7 1 2-1 2-4 2-10 1-13 2-1 2-3 6-5 14-3 4h-2l-3-2-2-5-3-7-3-5-3-5-17-2-8-1-2-2 1-3 4-5 9-9 4-5Z" class="c"/></svg>